inDegrees=no
num_controls=7
num_derivatives=13
num_iterations=150
num_multipliers=7
num_parameters=0
num_slacks=7
num_states=26
objective=5.666772
objective_accelerations=0.488748
objective_balance=0.026023
objective_effort=0.524575
objective_height=4.602809
objective_ligament=0.024616
solver_duration=1680.700036
status=Solve_Succeeded
success=true
DataType=double
version=3
OpenSimVersion=4.4-2022-07-23-0e9fedc
endheader
time	/jointset/ground_pelvis/pelvis_tilt/value	/jointset/ground_pelvis/pelvis_tx/value	/jointset/ground_pelvis/pelvis_ty/value	/jointset/hip_l/hip_flexion_l/value	/jointset/hip_l/hip_adduction_l/value	/jointset/hip_l/hip_rotation_l/value	/jointset/back/lumbar_extension/value	/jointset/patellofemoral_l/patellar_flexion_l/value	/jointset/knee_l/knee_flexion_l/value	/jointset/knee_l/knee_adduction_l/value	/jointset/knee_l/knee_rotation_l/value	/jointset/ankle_l/ankle_angle_l/value	/jointset/subtalar_l/subtalar_angle_l/value	/jointset/ground_pelvis/pelvis_tilt/speed	/jointset/ground_pelvis/pelvis_tx/speed	/jointset/ground_pelvis/pelvis_ty/speed	/jointset/hip_l/hip_flexion_l/speed	/jointset/hip_l/hip_adduction_l/speed	/jointset/hip_l/hip_rotation_l/speed	/jointset/back/lumbar_extension/speed	/jointset/patellofemoral_l/patellar_flexion_l/speed	/jointset/knee_l/knee_flexion_l/speed	/jointset/knee_l/knee_adduction_l/speed	/jointset/knee_l/knee_rotation_l/speed	/jointset/ankle_l/ankle_angle_l/speed	/jointset/subtalar_l/subtalar_angle_l/speed	/forceset/tau_hip_flexion_l	/forceset/tau_hip_adduction_l	/forceset/tau_hip_rotation_l	/forceset/tau_knee_flexion_l	/forceset/tau_ankle_angle_l	/forceset/tau_subtalar_angle_l	/forceset/tau_lumbar_extension	lambda_cid13_p0	lambda_cid13_p1	lambda_cid13_p2	lambda_cid13_p3	lambda_cid13_p4	lambda_cid13_p5	lambda_cid14_p0	/jointset/ground_pelvis/pelvis_tilt/accel	/jointset/ground_pelvis/pelvis_tx/accel	/jointset/ground_pelvis/pelvis_ty/accel	/jointset/hip_l/hip_flexion_l/accel	/jointset/hip_l/hip_adduction_l/accel	/jointset/hip_l/hip_rotation_l/accel	/jointset/back/lumbar_extension/accel	/jointset/patellofemoral_l/patellar_flexion_l/accel	/jointset/knee_l/knee_flexion_l/accel	/jointset/knee_l/knee_adduction_l/accel	/jointset/knee_l/knee_rotation_l/accel	/jointset/ankle_l/ankle_angle_l/accel	/jointset/subtalar_l/subtalar_angle_l/accel	gamma_cid13_p0	gamma_cid13_p1	gamma_cid13_p2	gamma_cid13_p3	gamma_cid13_p4	gamma_cid13_p5	gamma_cid14_p0
1.5	-0.03879671536088036	-0.04171141241642115	0.8547977045163161	0.709210901490519	-0.3244006842677416	-0.1478948914858677	-0.7964982019430774	0.6837058320085043	0.6837058320085284	-0.1311109452360135	-0.1713742924171543	0.0596527700400512	-0.01119456130500933	0.4575022725725247	0.3022059327694001	0.3988741300983764	-2.071520605159175	0.09355636638901166	-0.573019020631374	0.8376498287736742	-1.743172718442478	-1.743172718442352	-0.1069006965426149	0.03106911423934337	-0.2232216222844468	0.03275771304392992	-0.2252056064094053	0.008968500909948617	-0.0008695125231877878	-0.1997996313061652	0.114116189774351	0.04944335167988535	0.2943109037235652	-6.023750201627234	-22.2648826707095	5.204299736688833	-10.79150752361895	-672.4815973419504	-82.55857579961712	-18.44714608336018	0.05826473776612504	0.7366295653074435	-0.5339806719685122	-0.7927151790829668	0.4845175983900578	-0.1525451762158081	1.973187341483726	-0.8146511459234909	-0.8146511459234898	-0.1000154319332153	0.2028542393648787	0.01000611482546419	0.5035988398022865	9.966107157472423e-08	9.024559611828933e-07	-2.80728780291456e-07	7.846742632426794e-08	2.288906930217351e-07	1.308308242146243e-07	1.501961631631958e-07
1.51	-0.03421916336449846	-0.03865279004166072	0.8587589734350415	0.6884580226856301	-0.3234417235733501	-0.1536326869990795	-0.7880244248259722	0.6662353961678261	0.6662353961678423	-0.1321860748452594	-0.1710547035500018	0.05742125114219999	-0.01084266328713922	0.457944681615245	0.3094866760000481	0.3933008682728983	-2.078788403750765	0.09823114256664324	-0.5744736933325522	0.8569901921649611	-1.750677829452668	-1.750677829452546	-0.1081087957206732	0.03284906078450595	-0.2230284904417035	0.0376309289942371	-0.2170264569183202	0.008362833439504112	-0.0008619723642446872	-0.1969438499182369	0.1131240307977527	0.04857252161968805	0.286762295037613	-6.098034308513913	-21.90899304251073	5.187903174989975	-10.50860400382643	-668.0526984796355	-82.41411199329185	-19.00022721439944	0.0277200953517024	0.7190296373553153	-0.5807635091257253	-0.6537883551171089	0.4581989903500955	-0.1317999755531231	1.897150466041361	-0.6829839705722376	-0.6829839705730076	-0.128602725950121	0.1655058234885703	0.03203978413814439	0.4804535285683591	1.219226659955324e-07	9.055626614660781e-07	-4.274034459645896e-07	6.91267990688951e-08	2.534976373975669e-07	1.599306948129031e-07	1.696283684388975e-07
1.52	-0.029639089056102	-0.03552231364751199	0.8626621568212549	0.6676404706636567	-0.3224361668445622	-0.1593830035710395	-0.7793607061493354	0.6486970006386502	0.6486970006386592	-0.1332727645594215	-0.170717327025022	0.05519327817581049	-0.01044177899858157	0.4580067349710168	0.3165767366470614	0.3872570235959814	-2.084455248579174	0.1028755732602827	-0.5755232323730836	0.8756381406798784	-1.756764656143079	-1.756764656142961	-0.1092127175070335	0.03462664578553212	-0.2225124359933841	0.04255496718148469	-0.208847307427262	0.007757165969036426	-0.0008544322058537869	-0.1940880685302673	0.1121318718211554	0.04770169155946571	0.2792136863516426	-6.177545157089106	-21.55363371560607	5.173242656226974	-10.23968096977388	-663.7198175524906	-82.31324605733467	-19.53330963301135	-0.01780639962340308	0.6984930485804389	-0.6280972422562847	-0.4725244264467672	0.4784485015917207	-0.07151844408633094	1.834704366210046	-0.5309942819679545	-0.5309942819679555	-0.07917995359360629	0.2023819305377064	0.07459063594058114	0.5137632871903605	1.325277000220944e-07	9.338878044471647e-07	-5.007781900964717e-07	6.71162929333232e-08	2.728149941046866e-07	1.849919255867676e-07	1.812476281488772e-07
1.53	-0.02506030535125367	-0.03232195985186053	0.8665026036116058	0.6467742742423892	-0.3213844118323973	-0.1651418745796102	-0.7705141950244992	0.6311048705547935	0.6311048705547726	-0.1343700583907466	-0.17036230501857	0.05297206148455291	-0.009991500282739995	0.4576836360566231	0.3234544240968055	0.3807584559300189	-2.088506089819922	0.1074629968370298	-0.5761764462444816	0.8935271239894534	-1.761413802517336	-1.761413802517227	-0.1102371150627054	0.03637858288109393	-0.2216763387719154	0.04750211467670051	-0.2004369939436642	0.006919655469237572	-0.000883446628305676	-0.19150176346801	0.1114145356816586	0.04669723878197837	0.2714506023274994	-6.1788054718645	-21.15135082989533	5.148139739718866	-9.956454032208109	-659.4358420274916	-82.1638908059182	-20.0430861176574	-0.04951186868828694	0.6764820323715314	-0.6717595414134057	-0.3296635105216262	0.4469410866560481	-0.05086749390073988	1.745451269110254	-0.3947783671080399	-0.3947783671095699	-0.1125719644509118	0.1616033353177908	0.09632858067038202	0.4852875253487741	1.3074763862977e-07	9.890075427947717e-07	-4.96271767590775e-07	7.289404048753974e-08	2.865121639137996e-07	2.05762101547192e-07	1.845656331952774e-07
1.54	-0.02048674268180018	-0.02905401409387208	0.870275860122768	0.6258759095011975	-0.3202871722242459	-0.1709050066539732	-0.761492902875411	0.6134736682968028	0.6134736682967632	-0.1354772966592825	-0.1699897628938328	0.05076084762860012	-0.009491730683014172	0.4569625278885791	0.3300951291144593	0.3738189677582432	-2.090888912565998	0.111972492451371	-0.5763754455252342	0.9105943455302097	-1.764579090969733	-1.764579090969634	-0.1112016049342421	0.03813066942674934	-0.2205118689336316	0.05245314395838285	-0.1920266804601048	0.006082144969409266	-0.0009124610512119725	-0.1889154584057211	0.1106971995421619	0.04569278600446799	0.2636875183033319	-6.1855243066953	-20.74933094872537	5.124471337720979	-9.68454173877109	-655.2487288590912	-82.05821794678579	-20.52627105395141	-0.0974082503532628	0.6510965621622683	-0.716281343418953	-0.1389207275123798	0.4628629091106321	0.01932447404285561	1.670352012446493	-0.234222697596196	-0.2342226975961932	-0.06719841676657766	0.2024118205565335	0.1402651593034523	0.5145396444836459	1.274619266321489e-07	1.02851715577055e-06	-4.889767062649597e-07	7.728721228461186e-08	2.973338395795958e-07	2.239833297389308e-07	1.855674675692624e-07
1.55	-0.01592240038888681	-0.02572096093467932	0.8739775752296822	0.6049621526654091	-0.3191452473253777	-0.1766679662124505	-0.7523052639517777	0.5958182581944982	0.5958182581944461	-0.136593813285487	-0.1695997608906432	0.04856284749995368	-0.008942468439313522	0.4558383790074748	0.3364638392697421	0.3664559254201497	-2.091570931284757	0.1163953285025122	-0.5761433588559718	0.9267724782023516	-1.766247284623512	-1.766247284623446	-0.1120897888540137	0.03986642661691422	-0.2190393888773682	0.05739422291503497	-0.1835592322833361	0.005172147582729652	-0.0009657028778876691	-0.1863222311932856	0.1098012901539566	0.04457173708721832	0.2558216179280144	-6.264391632615678	-20.28336913254372	5.08984127702121	-9.251623505293622	-651.1624927862442	-81.86443155195508	-20.97953868383767	-0.1300484160335721	0.6220250516016922	-0.7564731069227419	0.01089198632259972	0.4293256498614452	0.03629090052406564	1.567399745957279	-0.0948075641202918	-0.09480756412542542	-0.09767488967854931	0.1585444335216787	0.1580791220456946	0.4830168144084357	1.22441443284947e-07	1.050041189513569e-06	-4.784686480377036e-07	8.008511201366986e-08	3.048424459063531e-07	2.392677268058801e-07	1.839006705163344e-07
1.56	-0.01137132562657834	-0.02232576731205605	0.8776036284276321	0.5840503225285161	-0.3179596277266216	-0.1824263768768325	-0.7429606725311508	0.5781538281826768	0.5781538281826357	-0.137718821052964	-0.1691925239624379	0.04638104011052645	-0.008343970447416107	0.4543090217645807	0.342523221800561	0.3586865859653736	-2.090503572788315	0.1207114324234828	-0.5754656667004553	0.9419848449288811	-1.766383072871355	-1.766383072871323	-0.1128998331776196	0.04157765441808682	-0.2172733210907887	0.0623002935977877	-0.1750917841066179	0.004262150196012364	-0.001018944704885614	-0.1837290039808354	0.1089053807657448	0.04345068816993083	0.2479557175526678	-6.349246932135977	-19.81735037360889	5.056335181389421	-8.827089824430315	-647.1782751575147	-81.71256767017819	-21.39966596023046	-0.1784499227110238	0.5892310372693544	-0.7975407667554911	0.2109547155280077	0.4415164830766068	0.1084455712937435	1.477198823324205	0.07225838359090045	0.07225838359090102	-0.05157049753340723	0.1975059427581756	0.1989827053664605	0.5075379897037408	1.153832891719915e-07	1.06754547979831e-06	-4.610620934228821e-07	8.379551844421129e-08	3.078179563566383e-07	2.51618746594858e-07	1.808792415772177e-07
